<svg xmlns="http://www.w3.org/2000/svg" width="1280" height="800" viewBox="0 0 1280 800">
  <rect width="1280" height="800" fill="#fffdf8"/>
  <g transform="translate(640, 300)">
    <circle cx="0" cy="0" r="80" fill="#183a4a" opacity="0.1"/>
    <circle cx="0" cy="0" r="55" fill="#183a4a" opacity="0.15"/>
    <circle cx="0" cy="0" r="30" fill="#d8894f"/>
    <line x1="0" y1="-80" x2="0" y2="-140" stroke="#183a4a" stroke-width="2" opacity="0.3"/>
    <line x1="56" y1="-40" x2="98" y2="-70" stroke="#183a4a" stroke-width="2" opacity="0.3"/>
    <line x1="56" y1="40" x2="98" y2="70" stroke="#183a4a" stroke-width="2" opacity="0.3"/>
    <line x1="0" y1="80" x2="0" y2="140" stroke="#183a4a" stroke-width="2" opacity="0.3"/>
    <line x1="-56" y1="40" x2="-98" y2="70" stroke="#183a4a" stroke-width="2" opacity="0.3"/>
  </g>
  <g transform="translate(640, 120)">
    <rect x="-50" y="-25" width="100" height="50" rx="8" fill="#eef7f3" stroke="#183a4a" stroke-width="2"/>
    <rect x="-30" y="-8" width="60" height="16" rx="4" fill="#d8894f" opacity="0.4"/>
  </g>
  <g transform="translate(880, 230)">
    <rect x="-50" y="-25" width="100" height="50" rx="8" fill="#eef7f3" stroke="#183a4a" stroke-width="2"/>
    <rect x="-35" y="-10" width="25" height="20" rx="3" fill="#d8894f" opacity="0.4"/>
    <rect x="-5" y="-10" width="25" height="20" rx="3" fill="#d8894f" opacity="0.3"/>
    <rect x="25" y="-10" width="15" height="20" rx="3" fill="#d8894f" opacity="0.2"/>
  </g>
  <g transform="translate(880, 370)">
    <rect x="-50" y="-25" width="100" height="50" rx="8" fill="#eef7f3" stroke="#183a4a" stroke-width="2"/>
    <circle cx="0" cy="0" r="15" fill="#d8894f" opacity="0.3"/>
    <path d="M -20 15 Q 0 30 20 15" stroke="#183a4a" stroke-width="2" fill="none" opacity="0.3"/>
  </g>
  <g transform="translate(640, 480)">
    <rect x="-50" y="-25" width="100" height="50" rx="8" fill="#eef7f3" stroke="#183a4a" stroke-width="2"/>
    <rect x="-30" y="-5" width="60" height="10" rx="5" fill="#183a4a" opacity="0.3"/>
  </g>
  <g transform="translate(400, 370)">
    <rect x="-50" y="-25" width="100" height="50" rx="8" fill="#eef7f3" stroke="#183a4a" stroke-width="2"/>
    <rect x="-25" y="-15" width="50" height="30" rx="4" fill="#d8894f" opacity="0.2"/>
    <line x1="-15" y1="-5" x2="15" y2="-5" stroke="#183a4a" stroke-width="2" opacity="0.3"/>
    <line x1="-15" y1="5" x2="10" y2="5" stroke="#183a4a" stroke-width="2" opacity="0.3"/>
  </g>
</svg>
