<svg xmlns="http://www.w3.org/2000/svg" width="1280" height="800" viewBox="0 0 1280 800">
  <rect width="1280" height="800" fill="#fffdf8"/>
  <g transform="translate(640, 400)">
    <rect x="-120" y="-60" width="240" height="120" rx="8" fill="#183a4a"/>
    <circle cx="0" cy="0" r="30" fill="#d8894f"/>
    <rect x="-200" y="-200" width="100" height="70" rx="8" fill="#eef7f3" opacity="0.8"/>
    <rect x="100" y="-200" width="100" height="70" rx="8" fill="#eef7f3" opacity="0.8"/>
    <rect x="-200" y="130" width="100" height="70" rx="8" fill="#eef7f3" opacity="0.8"/>
    <rect x="100" y="130" width="100" height="70" rx="8" fill="#eef7f3" opacity="0.8"/>
    <line x1="-120" y1="-30" x2="-150" y2="-130" stroke="#183a4a" stroke-width="3" opacity="0.4"/>
    <line x1="120" y1="-30" x2="150" y2="-130" stroke="#183a4a" stroke-width="3" opacity="0.4"/>
    <line x1="-120" y1="30" x2="-150" y2="130" stroke="#183a4a" stroke-width="3" opacity="0.4"/>
    <line x1="120" y1="30" x2="150" y2="130" stroke="#183a4a" stroke-width="3" opacity="0.4"/>
    <circle cx="-150" cy="-165" r="12" fill="#d8894f" opacity="0.6"/>
    <circle cx="150" cy="-165" r="12" fill="#d8894f" opacity="0.6"/>
    <circle cx="-150" cy="165" r="12" fill="#d8894f" opacity="0.6"/>
    <circle cx="150" cy="165" r="12" fill="#d8894f" opacity="0.6"/>
  </g>
</svg>
